<?xml version="1.0" standalone="no"?>
<!DOCTYPE svg PUBLIC "-//W3C//DTD SVG 20010904//EN"
 "http://www.w3.org/TR/2001/REC-SVG-20010904/DTD/svg10.dtd">
<svg version="1.0" xmlns="http://www.w3.org/2000/svg"
 width="390.000000pt" height="390.000000pt" viewBox="0 0 390.000000 390.000000"
 preserveAspectRatio="xMidYMid meet">
<metadata>
Created by potrace 1.14, written by Peter Selinger 2001-2017
</metadata>
<g transform="translate(0.000000,390.000000) scale(0.100000,-0.100000)"
fill="#000000" stroke="none">
<path d="M0 3103 c0 -438 3 -794 5 -791 3 3 30 146 61 319 30 172 66 368 80
434 76 363 166 605 255 679 77 65 194 61 385 -13 l76 -30 30 35 c65 74 178
103 261 66 26 -12 47 -25 47 -30 0 -4 28 -8 63 -8 47 1 71 -4 99 -21 25 -15
46 -20 65 -16 43 9 147 8 162 -1 11 -7 11 -10 0 -18 -19 -13 -7 -9 116 41 152
61 213 74 324 68 69 -3 125 -13 201 -37 63 -19 133 -33 175 -35 39 -2 124 -7
190 -13 l120 -9 110 39 c204 73 276 62 386 -56 57 -61 61 -64 99 -59 21 3 52
1 69 -5 24 -8 32 -7 42 4 7 9 30 24 50 35 113 57 269 -26 269 -144 0 -22 8
-41 21 -53 30 -27 104 -133 122 -174 14 -32 15 -11 16 278 l1 312 -1950 0
-1950 0 0 -797z m88 182 c-40 -98 -58 -134 -43 -85 13 43 77 191 81 187 2 -1
-15 -48 -38 -102z"/>
<path d="M1929 3800 c-30 -5 -91 -22 -135 -38 -98 -36 -274 -115 -274 -123 0
-6 75 -27 170 -49 172 -39 659 -9 849 53 l105 34 -85 6 c-54 3 -129 19 -209
42 -272 81 -323 90 -421 75z"/>
<path d="M2940 3783 c-98 -35 -255 -95 -257 -97 -2 -1 33 -1 76 2 110 6 210
-18 332 -80 l97 -50 36 39 35 38 -62 64 c-34 35 -76 69 -94 77 -31 14 -133 18
-163 7z"/>
<path d="M444 3751 c-41 -19 -80 -65 -119 -140 -17 -33 -17 -36 1 -69 14 -27
22 -32 38 -26 12 3 37 8 56 9 19 2 53 6 75 9 34 5 46 2 80 -22 66 -46 112
-135 99 -189 -8 -32 -20 -21 -54 51 -17 36 -49 81 -75 105 -42 39 -49 42 -88
38 -43 -5 -117 -37 -149 -64 -10 -9 -18 -11 -22 -4 -4 6 5 17 18 26 22 14 23
20 14 41 -6 13 -14 24 -18 24 -8 0 -25 -49 -50 -141 -22 -83 -25 -111 -6 -59
l13 35 12 -55 c6 -30 21 -74 33 -98 21 -45 19 -59 -6 -49 -19 8 -45 47 -61 94
-15 43 -12 50 -54 -127 -28 -120 -59 -276 -80 -405 -5 -33 -26 -151 -46 -262
l-35 -203 21 -42 c12 -23 27 -58 34 -77 13 -34 14 -30 14 64 1 144 13 356 20
350 3 -3 4 -118 2 -254 -3 -226 -1 -254 18 -317 61 -207 68 -495 16 -721 -5
-22 -5 -22 19 2 19 19 36 25 66 25 25 0 39 -4 35 -10 -3 -5 -11 -10 -16 -10
-13 0 -55 -47 -74 -82 -14 -25 -14 -32 0 -64 8 -20 19 -34 25 -32 6 2 24 43
41 92 16 48 34 97 40 108 9 16 8 19 -3 13 -7 -4 -2 3 12 15 14 12 18 18 10 14
-16 -9 55 79 89 110 14 12 21 31 21 53 l0 35 49 -7 c27 -4 57 -2 68 3 10 6 29
12 43 13 26 4 28 10 54 196 7 53 -22 152 -64 220 -46 71 -45 71 -25 94 15 15
14 17 -10 23 -14 4 -25 11 -25 17 0 6 -4 7 -10 4 -6 -3 -7 1 -4 9 18 46 86 17
82 -35 -2 -30 26 -69 49 -69 7 0 18 11 23 25 5 14 13 25 17 26 5 0 27 1 51 3
24 1 47 8 52 15 4 8 10 9 14 3 3 -5 -1 -15 -9 -22 -24 -20 -17 -34 9 -17 16
11 38 14 72 11 l49 -6 3 95 c2 70 -2 106 -14 136 -9 23 -19 41 -23 41 -14 0
-35 -19 -28 -26 4 -4 2 -13 -4 -21 -6 -7 -8 -13 -4 -13 4 0 1 -7 -6 -16 -11
-14 -11 -18 3 -28 22 -16 13 -52 -14 -59 -17 -5 -18 -2 -13 23 4 17 2 31 -6
36 -7 4 -10 3 -6 -3 4 -6 0 -16 -8 -23 -23 -19 -45 8 -33 42 11 32 20 35 38
13 7 -8 16 -12 21 -9 13 8 11 58 -2 71 -9 9 -2 16 26 27 43 18 55 20 55 7 0
-5 15 -15 34 -21 19 -6 40 -17 46 -25 7 -8 16 -13 20 -10 11 7 74 -21 89 -39
7 -8 26 -18 42 -21 16 -4 29 -11 29 -16 0 -5 5 -9 11 -9 6 0 9 14 7 33 -2 24
-7 31 -20 29 -12 -2 -18 4 -18 18 0 15 7 20 28 21 15 0 22 3 15 5 -7 3 -10 11
-8 17 2 7 6 41 10 76 3 35 8 82 12 104 4 29 3 38 -5 33 -8 -5 -12 1 -13 16 -1
19 -4 16 -17 -14 -12 -27 -23 -38 -38 -38 -12 0 -24 -7 -28 -15 -8 -23 -21
-18 -32 13 -7 19 -6 35 2 52 6 14 14 39 17 55 4 18 -6 5 -25 -35 -32 -70 -68
-121 -68 -99 0 7 -14 -2 -31 -21 -17 -19 -28 -27 -25 -18 21 69 26 107 23 189
-2 52 -9 104 -15 115 -12 23 -82 88 -88 82 -1 -2 8 -26 22 -54 49 -99 28 -244
-47 -323 l-23 -24 -7 25 c-4 14 0 50 8 79 19 67 19 198 1 263 -17 61 -73 106
-142 113 -52 6 -52 7 -14 -74 18 -39 19 -50 8 -140 -15 -124 -38 -188 -67
-188 -12 0 -31 -9 -41 -19 -29 -25 -74 -18 -83 14 -20 71 4 228 46 310 8 15
16 39 19 53 7 40 14 47 49 48 31 1 30 2 -8 10 -22 4 -57 8 -79 8 -33 1 -37 3
-26 16 9 10 32 15 76 15 l64 0 -6 33 c-13 78 -14 79 -37 73 -60 -18 -98 -19
-117 -1 -11 10 -20 23 -20 28 0 27 58 82 114 108 74 35 119 38 140 7 18 -25
12 -40 -37 -89 l-34 -34 10 -67 11 -66 45 -13 c25 -7 53 -18 62 -26 8 -7 21
-13 27 -13 18 0 14 38 -5 49 -10 5 -14 13 -10 17 5 5 11 3 15 -3 6 -9 15 -8
37 4 17 9 42 22 57 30 14 7 29 20 32 28 3 8 15 15 27 15 12 0 23 8 26 20 3 11
9 20 14 20 5 0 18 9 29 20 11 11 27 20 35 20 12 0 14 11 10 58 l-4 57 11 -42
c6 -24 14 -43 18 -43 3 0 16 10 27 23 23 25 39 77 23 77 -5 0 -10 5 -10 10 0
6 9 10 19 10 16 0 20 9 23 55 l3 55 -48 16 c-26 9 -61 27 -77 40 -26 23 -33
24 -69 14 -56 -15 -133 3 -171 41 -34 34 -47 87 -30 119 6 12 9 24 7 27 -7 7
-80 -32 -116 -62 -17 -15 -36 -25 -43 -23 -16 6 96 85 141 98 20 7 56 19 79
28 43 15 43 16 20 28 -12 8 -65 27 -116 44 -110 36 -195 39 -258 11z m242
-247 c37 -25 65 -86 57 -125 l-6 -33 -14 39 c-7 22 -26 53 -42 70 -15 16 -31
38 -34 48 -4 9 -13 17 -22 17 -8 0 -15 4 -15 10 0 11 38 -2 76 -26z m-266 -46
c59 -40 135 -195 101 -206 -6 -2 -11 -9 -11 -16 0 -7 -8 -20 -17 -29 -14 -12
-21 -13 -33 -4 -34 26 -71 88 -95 157 -28 83 -31 106 -12 113 23 10 34 7 67
-15z m580 -270 c0 -19 -2 -20 -10 -8 -13 19 -13 30 0 30 6 0 10 -10 10 -22z
m-721 -150 c-12 -23 -37 -67 -56 -96 -19 -30 -44 -79 -56 -110 -11 -32 -23
-50 -25 -40 -5 23 20 77 90 195 62 103 89 133 47 51z m94 -125 c-7 -2 -19 -2
-25 0 -7 3 -2 5 12 5 14 0 19 -2 13 -5z m-46 -9 c-3 -3 -12 -4 -19 -1 -8 3 -5
6 6 6 11 1 17 -2 13 -5z m-92 -34 c-3 -5 -16 -15 -28 -21 -19 -9 -19 -8 3 10
28 23 34 26 25 11z m115 -16 c0 -9 -14 -47 -30 -85 -17 -38 -35 -95 -41 -126
-12 -65 -18 -76 -38 -64 -21 13 -25 91 -7 160 18 71 40 106 76 120 36 13 40
13 40 -5z m179 -439 c35 -9 86 -27 113 -42 46 -25 48 -28 47 -67 0 -37 -17
-98 -18 -70 -1 8 -17 7 -58 -2 -32 -8 -70 -11 -85 -8 -34 7 -44 -11 -18 -33
19 -17 27 -43 13 -43 -12 0 -53 52 -53 66 0 7 -17 16 -37 20 -43 7 -109 42
-136 72 -12 13 -17 32 -15 53 3 29 9 36 48 51 56 21 117 22 199 3z m251 -102
c0 -5 -4 -14 -9 -21 -7 -11 -9 -11 -14 1 -3 8 -3 18 0 21 9 8 23 7 23 -1z
m-230 -673 c0 -5 -5 -10 -11 -10 -5 0 -7 5 -4 10 3 6 8 10 11 10 2 0 4 -4 4
-10z"/>
<path d="M343 2347 c-20 -11 -16 -12 35 -12 l57 0 3 -37 c5 -57 22 -46 20 12
l-2 50 -46 0 c-25 -1 -55 -6 -67 -13z"/>
<path d="M482 2343 c2 -13 20 -21 62 -30 33 -6 71 -16 84 -23 28 -12 39 -8 19
8 -15 13 -141 62 -158 62 -6 0 -9 -8 -7 -17z"/>
<path d="M2398 3733 c7 -3 16 -2 19 1 4 3 -2 6 -13 5 -11 0 -14 -3 -6 -6z"/>
<path d="M2438 3723 c7 -3 16 -2 19 1 4 3 -2 6 -13 5 -11 0 -14 -3 -6 -6z"/>
<path d="M2583 3703 c9 -2 23 -2 30 0 6 3 -1 5 -18 5 -16 0 -22 -2 -12 -5z"/>
<path d="M2630 3654 c-30 -8 -89 -26 -130 -40 -96 -33 -332 -56 -565 -57 -161
0 -263 13 -380 48 -18 5 -20 1 -20 -39 0 -85 -84 -151 -180 -143 -38 4 -56 0
-76 -14 -14 -10 -48 -24 -75 -31 -27 -7 -50 -13 -52 -14 -2 -1 6 -20 17 -42
25 -48 63 -62 109 -38 16 8 38 12 50 9 16 -4 24 1 34 22 l13 28 5 -24 c4 -16
14 -25 30 -27 14 -2 32 -6 40 -9 8 -3 23 -5 34 -4 10 2 22 -3 27 -10 6 -10 10
-10 23 0 13 11 17 11 22 -3 4 -12 16 -14 47 -10 49 6 77 -7 59 -28 -19 -23 1
-41 38 -33 24 5 31 11 27 25 -3 11 3 26 14 36 10 9 19 26 19 36 0 28 17 13 25
-22 4 -17 15 -35 25 -40 24 -13 36 -50 20 -60 -7 -4 -14 -28 -17 -53 -5 -39
-3 -46 16 -52 17 -5 21 -14 21 -45 0 -38 -1 -39 -25 -30 -20 8 -27 6 -35 -11
-6 -11 -8 -29 -5 -39 6 -18 15 -20 75 -18 44 1 74 -3 84 -11 9 -7 23 -10 32
-7 11 4 25 -2 37 -15 20 -21 20 -21 39 -1 26 26 41 147 21 167 -7 8 -13 16
-13 20 0 4 -7 13 -15 21 -8 9 -15 26 -15 39 0 33 23 72 39 67 17 -6 31 16 31
49 0 40 63 97 114 104 23 3 50 5 61 4 11 -1 27 1 36 5 12 5 18 1 22 -16 l6
-22 26 24 c14 13 26 20 26 17 1 -4 2 -13 3 -19 0 -7 14 -15 31 -16 16 -2 37
-13 47 -24 19 -22 48 -18 48 7 0 8 4 15 8 15 4 0 8 -12 7 -27 0 -18 7 -31 22
-38 20 -11 21 -14 8 -31 -17 -22 -20 -64 -4 -64 5 0 2 -14 -8 -31 -17 -29 -17
-31 1 -41 14 -8 15 -12 6 -18 -7 -4 -12 -19 -12 -34 0 -15 -7 -28 -18 -31 -19
-6 -44 -72 -28 -77 5 -2 11 -21 13 -43 6 -78 18 -125 31 -125 8 0 14 -9 14
-19 0 -28 10 -31 53 -18 25 8 40 19 43 35 6 20 24 32 24 14 0 -4 11 -9 25 -10
23 -2 25 2 25 38 0 50 -13 58 -46 25 -31 -31 -44 -21 -44 32 0 40 15 50 41 27
10 -9 22 -15 25 -11 3 3 -3 11 -13 18 -14 8 -18 20 -16 38 4 25 4 25 -11 7
-16 -20 -16 -20 -16 0 0 11 -6 26 -12 33 -11 10 -9 16 10 31 12 10 22 21 22
25 0 4 -6 3 -12 -3 -18 -14 -98 -26 -98 -15 0 10 12 22 67 70 25 22 34 40 41
81 8 47 7 54 -9 63 -11 5 -19 16 -19 24 0 8 -4 15 -10 15 -18 0 -10 16 14 29
13 8 26 25 29 40 3 15 17 33 30 40 21 11 34 10 91 -9 36 -13 66 -26 66 -30 0
-5 21 -1 48 7 62 19 180 12 250 -16 65 -26 65 -26 52 -1 -6 11 -10 42 -10 68
3 81 -10 131 -39 151 -50 35 -168 90 -228 105 -76 20 -229 20 -303 0z m-620
-544 c-16 -31 -23 -19 -9 16 6 16 13 24 16 17 2 -7 -1 -22 -7 -33z m570 10 c0
-5 -7 -10 -15 -10 -8 0 -15 5 -15 10 0 6 7 10 15 10 8 0 15 -4 15 -10z"/>
<path d="M3820 3350 c-1 -53 -33 -114 -74 -139 -20 -13 -36 -24 -36 -25 0 -2
23 -47 50 -101 56 -111 93 -217 120 -350 l19 -90 -2 295 c-2 279 -4 298 -25
351 -12 30 -29 64 -37 75 -14 18 -14 17 -15 -16z"/>
<path d="M2280 3320 c0 -5 5 -10 10 -10 6 0 10 5 10 10 0 6 -4 10 -10 10 -5 0
-10 -4 -10 -10z"/>
<path d="M2800 3298 c0 -9 -7 -21 -16 -26 -13 -7 -14 -13 -5 -30 6 -11 11 -30
11 -41 0 -12 4 -21 10 -21 6 0 6 -9 0 -26 -8 -20 -6 -32 7 -54 14 -24 14 -31
4 -44 -9 -11 -10 -16 -2 -16 6 0 11 -16 11 -35 0 -19 5 -35 10 -35 6 0 10 -9
10 -19 0 -11 4 -23 10 -26 5 -3 7 -20 3 -37 -5 -25 -3 -29 8 -23 12 8 12 6 0
-8 -7 -9 -11 -24 -7 -32 3 -8 1 -15 -3 -15 -15 0 -21 -31 -11 -51 6 -10 17
-19 25 -19 8 0 15 -4 15 -10 0 -5 13 -24 28 -42 36 -41 46 -80 32 -124 -8 -23
-8 -39 -1 -51 9 -16 10 -16 11 5 0 12 5 22 10 22 6 0 10 -5 10 -11 0 -6 9 -23
21 -37 15 -20 19 -35 14 -60 -4 -20 -1 -47 6 -64 9 -23 9 -37 -1 -69 -7 -21
-19 -39 -27 -39 -7 0 -13 -6 -13 -14 0 -8 -9 -18 -20 -21 -14 -4 -20 -15 -20
-35 0 -32 23 -46 41 -24 7 9 23 14 36 11 31 -6 61 16 46 34 -37 46 -19 151 31
184 16 11 26 26 26 42 0 38 29 91 63 115 l30 21 -22 18 c-11 9 -21 20 -21 23
0 9 51 7 89 -4 30 -8 36 -7 54 17 40 51 134 69 177 35 22 -18 24 -18 60 0 32
16 45 18 79 8 22 -6 49 -22 60 -36 19 -24 21 -25 45 -8 14 9 26 20 26 25 0 4
23 -2 51 -13 33 -14 55 -31 65 -50 9 -17 17 -28 19 -26 6 6 -24 186 -45 268
-22 87 -80 229 -123 302 l-26 44 -73 0 c-53 -1 -81 -6 -101 -19 -39 -26 -118
-38 -174 -27 -82 15 -146 43 -253 111 -95 60 -150 75 -221 60 -41 -9 -54 -9
-61 1 -6 10 -8 9 -8 -4z m75 -329 c-10 -15 -25 -10 -19 6 4 8 10 12 15 9 5 -3
7 -10 4 -15z"/>
<path d="M593 3169 c-18 -5 -33 -14 -33 -19 0 -13 8 -12 55 10 43 20 31 24
-22 9z"/>
<path d="M1651 3142 c-25 -20 -33 -34 -28 -46 9 -24 28 -16 50 22 27 46 17 57
-22 24z"/>
<path d="M2320 3119 c0 -40 -23 -79 -35 -59 -11 19 -33 10 -37 -15 -8 -37 2
-77 17 -71 14 5 30 -38 20 -54 -4 -6 -2 -10 4 -10 5 0 14 -19 20 -42 10 -42
10 -42 7 20 -2 58 5 79 18 50 3 -7 2 0 -1 16 -5 24 -3 28 11 23 15 -6 22 12
17 51 -1 6 3 12 9 12 6 0 9 -4 5 -9 -3 -5 -1 -12 5 -16 13 -8 13 -95 1 -95 -5
0 -12 8 -14 18 -2 9 -3 -26 -2 -79 1 -53 7 -104 14 -115 9 -15 11 0 9 74 -1
60 3 97 10 104 19 19 15 92 -7 119 -28 37 -48 82 -44 102 3 10 -1 17 -11 17
-12 0 -16 -10 -16 -41z m0 -150 c0 -5 -4 -9 -10 -9 -5 0 -10 7 -10 16 0 8 5
12 10 9 6 -3 10 -10 10 -16z"/>
<path d="M503 3128 c-17 -13 -36 -31 -43 -41 -9 -14 -3 -13 26 7 28 19 41 23
51 14 14 -11 16 -3 5 25 -7 16 -10 15 -39 -5z"/>
<path d="M1260 3080 c0 -5 7 -10 16 -10 8 0 12 5 9 10 -3 6 -10 10 -16 10 -5
0 -9 -4 -9 -10z"/>
<path d="M2785 3020 c3 -5 8 -10 11 -10 2 0 4 5 4 10 0 6 -5 10 -11 10 -5 0
-7 -4 -4 -10z"/>
<path d="M2476 3005 c-3 -8 -1 -15 4 -15 6 0 10 7 10 15 0 8 -2 15 -4 15 -2 0
-6 -7 -10 -15z"/>
<path d="M2206 2968 c-8 -31 -8 -38 3 -38 12 0 22 43 12 53 -5 5 -11 -2 -15
-15z"/>
<path d="M2469 2978 c-5 -23 -4 -80 2 -83 4 -3 9 15 11 40 2 25 0 45 -4 45 -5
0 -8 -1 -9 -2z"/>
<path d="M2247 2953 c-3 -5 -12 -32 -20 -60 -14 -47 -14 -53 -1 -53 8 0 13 -4
9 -9 -3 -5 -1 -12 5 -16 13 -8 18 8 22 83 4 55 -2 76 -15 55z"/>
<path d="M1618 2875 c-4 -18 -1 -25 11 -25 11 0 17 9 19 25 1 16 -3 25 -12 25
-7 0 -16 -11 -18 -25z"/>
<path d="M1790 2870 c0 -6 7 -13 15 -16 12 -5 13 -10 4 -20 -20 -24 1 -37 50
-31 47 6 101 25 101 36 0 9 -111 41 -143 41 -15 0 -27 -5 -27 -10z"/>
<path d="M2200 2820 c0 -5 5 -10 10 -10 6 0 10 5 10 10 0 6 -4 10 -10 10 -5 0
-10 -4 -10 -10z"/>
<path d="M1837 2763 c-12 -11 -8 -23 8 -23 8 0 15 7 15 15 0 16 -12 20 -23 8z"/>
<path d="M1840 2721 c0 -6 5 -13 10 -16 6 -3 10 1 10 9 0 9 -4 16 -10 16 -5 0
-10 -4 -10 -9z"/>
<path d="M1750 2670 c0 -5 7 -10 15 -10 8 0 15 5 15 10 0 6 -7 10 -15 10 -8 0
-15 -4 -15 -10z"/>
<path d="M1892 2658 c2 -12 10 -23 18 -23 22 0 19 39 -3 43 -15 3 -18 -1 -15
-20z"/>
<path d="M1936 2622 c-3 -5 1 -18 9 -28 14 -18 14 -18 15 3 0 23 -15 39 -24
25z"/>
<path d="M1865 2600 c-16 -11 -31 -25 -31 -32 -1 -7 -2 -19 -3 -25 -2 -25 -22
-13 -27 17 -5 23 -12 30 -30 30 -18 0 -22 -4 -18 -17 5 -15 3 -15 -10 1 -21
27 -43 8 -27 -22 9 -17 7 -26 -12 -49 -42 -50 -67 -188 -42 -236 12 -25 43
-25 82 1 23 14 26 14 46 -6 21 -21 21 -22 3 -59 -11 -21 -22 -54 -27 -73 -4
-19 -11 -45 -14 -58 -6 -19 -2 -24 24 -33 34 -12 44 -41 11 -32 -11 3 -27 0
-35 -7 -10 -9 -15 -9 -15 -1 0 6 -5 11 -11 11 -5 0 -7 -5 -4 -10 8 -13 -4 -50
-16 -50 -5 0 -9 13 -9 29 0 42 -9 61 -30 61 -10 0 -23 7 -31 16 -11 14 -15 11
-33 -23 -10 -21 -20 -49 -21 -63 -2 -14 -6 -33 -10 -42 -4 -11 1 -22 19 -33
14 -10 26 -26 26 -36 0 -20 15 -26 25 -9 3 5 12 7 19 4 7 -3 16 2 20 12 5 13
9 14 21 4 8 -7 22 -10 30 -6 13 5 14 10 5 27 -8 15 -9 24 -1 32 7 7 12 5 17
-7 4 -10 13 -15 24 -11 23 7 37 -13 15 -21 -14 -6 -12 -8 7 -18 29 -15 30 -40
2 -44 -12 -2 -24 -11 -27 -21 -3 -14 1 -17 19 -15 15 1 24 -3 24 -12 0 -8 -4
-14 -10 -14 -5 0 -10 -5 -10 -11 0 -15 122 -2 132 14 3 6 41 11 85 13 43 1
105 7 138 13 33 6 68 12 78 12 10 0 21 7 24 15 3 8 19 14 37 14 18 0 36 3 40
7 4 5 26 12 49 18 l42 10 3 55 c2 30 -2 71 -8 90 -8 25 -8 43 -1 63 6 15 8 48
4 72 -5 38 -9 44 -24 40 -12 -4 -19 1 -24 15 -3 11 -13 20 -22 20 -9 0 -13 6
-10 14 4 10 -2 16 -16 18 -23 3 -32 42 -15 65 13 16 5 116 -8 120 -7 2 -17 -9
-22 -24 -10 -27 -11 -27 -17 -5 -4 12 -13 22 -20 22 -7 0 -15 7 -19 15 -7 19
-35 19 -42 0 -9 -22 -21 -9 -28 31 -6 29 -10 33 -21 24 -27 -22 -45 -70 -35
-93 5 -12 9 -17 9 -11 1 7 14 11 30 10 34 -2 55 -16 23 -16 -11 0 -24 -5 -27
-11 -4 -6 -14 -8 -23 -4 -9 3 -13 3 -9 -1 4 -4 3 -12 -2 -18 -5 -6 -14 -37
-21 -68 -6 -32 -14 -60 -18 -62 -9 -5 -7 152 1 161 13 13 7 91 -8 103 -11 9
-15 9 -15 1 0 -8 -5 -9 -19 -2 -10 6 -21 7 -25 4 -3 -3 -6 1 -6 10 0 9 -5 27
-12 41 l-11 26 -25 -25 c-42 -42 -52 -34 -25 22 14 30 14 36 2 44 -19 12 -20
12 -54 -11z m-103 -75 c0 -5 -5 -11 -11 -13 -6 -2 -11 4 -11 13 0 9 5 15 11
13 6 -2 11 -8 11 -13z m67 -181 c-9 -11 -15 -12 -23 -4 -8 8 -6 15 9 26 23 17
34 2 14 -22z m199 18 c10 -7 9 -17 -4 -48 -9 -21 -18 -34 -20 -29 -1 6 -5 22
-8 38 -5 22 -12 27 -36 27 -17 0 -30 5 -30 10 0 12 79 13 98 2z m-138 -42 c0
-5 -4 -10 -10 -10 -5 0 -10 5 -10 10 0 6 5 10 10 10 6 0 10 -4 10 -10z m-35
-92 c-24 -81 -32 -90 -31 -33 1 25 5 45 9 45 4 0 13 14 19 31 19 55 22 20 3
-43z m427 -163 c0 -5 -5 -11 -11 -13 -6 -2 -11 4 -11 13 0 9 5 15 11 13 6 -2
11 -8 11 -13z"/>
<path d="M1102 2543 c-8 -14 -9 -24 -2 -28 12 -7 24 18 18 37 -3 8 -9 5 -16
-9z"/>
<path d="M1330 2540 c-6 -11 -7 -20 -3 -20 4 0 1 -5 -8 -10 -11 -6 -15 -18
-11 -35 2 -15 0 -25 -7 -25 -7 0 -9 5 -5 12 4 7 3 8 -4 4 -7 -4 -12 -14 -12
-22 0 -8 -4 -14 -10 -14 -5 0 -10 -11 -10 -25 0 -14 -4 -25 -9 -25 -13 0 -21
-52 -10 -71 6 -11 4 -21 -5 -28 -7 -6 -11 -22 -9 -35 4 -19 0 -25 -18 -28 -26
-4 -33 -32 -13 -52 8 -8 14 -23 14 -33 0 -25 28 -63 45 -63 8 0 19 9 26 21 8
16 14 18 22 10 9 -9 8 -17 -2 -33 -11 -17 -11 -22 1 -29 23 -16 43 -5 46 26 2
16 10 34 19 40 8 6 13 15 12 20 -2 11 18 65 24 65 2 0 18 -7 36 -16 38 -19 41
-18 34 19 -4 22 -11 27 -35 27 -25 0 -28 3 -23 21 6 19 4 21 -16 16 -13 -3
-29 -1 -37 6 -8 6 -20 12 -26 13 -6 0 -19 2 -28 2 -10 1 -18 6 -18 11 0 15 42
20 88 12 27 -5 45 -5 49 2 3 5 12 -2 20 -16 7 -15 22 -31 33 -37 17 -9 22 -7
30 15 6 15 8 38 6 52 -3 14 1 35 9 47 16 23 26 148 12 143 -18 -6 -71 -123
-62 -137 3 -6 5 -10 3 -10 -2 0 -27 -3 -55 -6 -47 -6 -53 -4 -53 12 -1 18 -1
18 -15 0 -25 -33 -33 -5 -21 74 8 58 14 120 10 120 -2 0 -8 -9 -14 -20z m0
-330 c0 -5 -4 -10 -9 -10 -6 0 -13 5 -16 10 -3 6 1 10 9 10 9 0 16 -4 16 -10z"/>
<path d="M2200 2526 c0 -9 5 -16 10 -16 6 0 10 4 10 9 0 6 -4 13 -10 16 -5 3
-10 -1 -10 -9z"/>
<path d="M2757 2523 c-4 -3 -7 -11 -7 -17 0 -6 5 -5 12 2 6 6 9 14 7 17 -3 3
-9 2 -12 -2z"/>
<path d="M2653 2482 c-14 -9 -3 -74 14 -79 15 -5 23 22 16 57 -6 31 -10 35
-30 22z"/>
<path d="M2742 2473 c-5 -10 -13 -33 -17 -50 -6 -32 -1 -39 28 -34 4 0 7 -3 7
-9 0 -5 6 -10 14 -10 7 0 16 -9 19 -21 8 -28 -9 -70 -25 -64 -8 3 -21 -9 -32
-30 -18 -32 -20 -33 -33 -17 -13 15 -14 13 -10 -19 5 -34 3 -37 -19 -35 -20 1
-24 6 -24 31 0 17 -13 55 -29 85 -24 45 -34 54 -52 52 -43 -5 -55 -63 -17 -83
14 -8 18 -14 11 -16 -10 -4 -9 -12 2 -39 14 -34 11 -64 -6 -64 -5 0 -9 -9 -9
-21 0 -13 -4 -18 -12 -13 -10 6 -10 4 -2 -7 6 -8 11 -24 12 -37 1 -36 -23 -20
-26 16 -3 24 -8 32 -23 32 -16 0 -19 -4 -14 -22 6 -17 4 -20 -9 -15 -20 8 -34
-19 -18 -35 8 -8 15 -8 27 2 12 10 15 10 15 -2 0 -24 59 -64 88 -59 6 1 12 -5
12 -14 0 -9 7 -18 15 -21 8 -4 13 -10 10 -14 -3 -4 2 -10 9 -13 8 -3 16 -1 18
4 2 7 40 11 93 10 50 0 119 7 154 15 57 13 66 13 87 -1 13 -9 24 -20 24 -26 0
-6 10 -9 22 -7 11 2 23 -3 25 -9 3 -8 -5 -13 -21 -13 -16 0 -26 -6 -26 -15 0
-9 -6 -12 -15 -9 -10 4 -13 13 -9 26 5 17 3 19 -18 13 -12 -4 -27 -12 -33 -19
-5 -6 -22 -19 -37 -29 -16 -10 -28 -22 -28 -27 0 -14 54 -12 69 3 10 10 12 8
9 -8 -2 -15 -11 -20 -37 -20 -19 0 -36 -6 -39 -13 -6 -18 -22 -4 -23 21 l0 22
-16 -22 c-8 -13 -20 -23 -26 -23 -14 0 -36 32 -37 53 0 9 -6 17 -14 17 -23 0
-43 -26 -50 -65 -6 -31 -9 -34 -26 -25 -17 9 -18 6 -17 -38 l2 -48 -39 -2
c-44 -1 -55 -12 -49 -46 5 -23 -19 -42 -37 -31 -5 3 -12 1 -15 -5 -5 -8 -11
-7 -21 1 -11 9 -14 8 -14 -9 0 -11 6 -25 14 -31 23 -19 25 -49 5 -67 -23 -20
-24 -52 -4 -78 20 -26 20 -86 1 -86 -8 0 -16 6 -19 13 -2 6 -3 4 -1 -6 1 -10
-4 -21 -12 -24 -19 -7 -18 -23 1 -23 24 0 17 -24 -11 -37 -18 -8 -32 -9 -45
-3 -19 11 -46 9 -66 -3 -19 -12 -33 1 -33 29 0 22 9 28 36 25 20 -2 26 33 8
46 -20 15 -13 54 16 83 14 14 18 28 14 45 -7 28 -24 34 -24 8 0 -31 -7 -8 -14
45 -6 43 -4 52 9 52 22 0 18 17 -5 23 -29 7 -29 67 0 67 19 0 20 1 5 24 -21
31 -52 39 -81 19 -25 -16 -33 -36 -11 -28 15 6 43 -35 30 -44 -5 -3 -12 -14
-16 -23 -6 -17 3 -23 27 -19 5 1 4 -5 -3 -13 -8 -9 -11 -28 -8 -42 3 -18 0
-27 -12 -32 -9 -3 -22 -12 -30 -20 -12 -11 -10 -14 8 -19 28 -7 27 -19 -3 -27
-18 -4 -32 1 -50 18 -30 27 -33 41 -10 50 9 4 14 9 11 13 -4 3 -2 14 3 24 16
28 -6 32 -34 6 -14 -14 -26 -29 -26 -34 0 -18 -27 -34 -44 -27 -9 3 -16 14
-16 23 1 14 3 13 15 -3 15 -19 15 -19 15 2 0 15 -6 22 -20 22 -15 0 -20 7 -20
25 0 18 -7 28 -26 35 -18 7 -24 16 -22 32 6 42 -26 25 -51 -28 -28 -56 -65
-83 -79 -57 -7 11 -12 3 -22 -31 -14 -52 -32 -53 -23 -1 4 26 2 36 -11 41 -9
3 -13 10 -10 15 3 5 -4 24 -15 43 -27 43 -100 68 -126 43 -8 -9 -15 -27 -15
-41 0 -14 -5 -26 -11 -26 -7 0 -10 12 -7 30 3 17 1 30 -4 30 -4 0 -8 -10 -8
-23 0 -13 -5 -28 -10 -33 -6 -6 -8 -18 -4 -28 6 -15 7 -15 20 1 12 16 13 15
14 -14 0 -33 -15 -77 -36 -103 -6 -8 -16 -28 -22 -45 l-10 -30 -1 27 c-1 21
-5 25 -21 21 -28 -7 -38 -23 -46 -69 -6 -38 -4 -41 16 -39 12 1 25 7 30 15 6
10 10 8 19 -8 6 -11 11 -26 11 -32 0 -15 25 -40 42 -40 8 0 5 -5 -6 -11 -14
-9 -20 -8 -26 1 -6 9 -11 6 -20 -10 -11 -20 -10 -22 4 -17 19 8 21 -6 4 -36
-6 -12 -12 -31 -13 -41 -1 -11 -7 -22 -13 -24 -7 -2 -12 -9 -12 -15 0 -7 -11
-12 -24 -12 -13 0 -22 3 -19 8 2 4 0 7 -5 7 -14 0 -21 -23 -15 -53 3 -15 0
-33 -6 -40 -13 -17 -5 -27 24 -27 20 0 21 -2 11 -45 -6 -25 -14 -45 -18 -45
-5 0 -8 -7 -8 -15 0 -8 -4 -15 -9 -15 -5 0 -11 -11 -13 -25 -4 -20 -3 -23 8
-14 20 17 17 1 -5 -27 -17 -22 -19 -22 -23 -6 -3 10 -4 40 -3 65 2 31 -2 50
-12 59 -8 7 -19 23 -25 37 l-9 25 -22 -34 c-21 -33 -21 -34 -27 -10 -4 17 -8
21 -14 12 -4 -7 -11 -10 -16 -7 -12 7 -42 -51 -39 -73 2 -9 -1 -28 -5 -40 -6
-18 -3 -29 12 -45 17 -18 20 -33 17 -86 -2 -36 0 -72 4 -80 5 -9 11 -35 14
-59 l5 -43 -22 25 c-12 15 -27 26 -34 26 -11 0 -17 20 -13 43 1 5 -3 6 -9 2
-5 -3 -10 -12 -10 -20 0 -7 -7 -15 -15 -19 -8 -3 -15 -14 -15 -25 0 -16 23
-31 103 -69 56 -27 149 -79 206 -116 l103 -68 137 26 c75 14 169 31 209 38 70
12 94 33 39 33 -15 1 -35 9 -45 19 -16 18 -15 18 26 13 29 -4 50 -13 65 -31
l22 -25 103 11 c95 11 103 13 108 35 6 21 10 23 38 17 40 -8 48 -13 41 -25 -7
-10 115 -13 164 -3 l31 7 0 296 c0 269 2 300 19 338 27 59 82 95 179 117 66
15 82 22 82 37 0 10 -6 22 -12 26 -26 16 -48 70 -42 101 5 23 1 33 -16 45 -12
8 -20 21 -18 29 3 9 15 3 35 -19 l30 -32 12 22 c10 18 10 35 2 76 -1 2 -13 -5
-28 -15 -27 -17 -27 -17 -13 0 8 10 13 30 12 45 -2 21 4 31 25 40 15 7 43 25
64 42 20 16 43 29 50 29 28 1 57 36 52 62 -3 14 3 40 11 57 9 17 14 37 10 43
-5 7 -2 9 9 5 11 -4 17 2 22 23 6 29 56 80 78 80 7 0 29 15 49 34 38 35 84 52
116 42 9 -3 33 -1 52 4 23 7 36 7 38 0 2 -5 10 -10 17 -10 7 0 23 -8 36 -19
17 -14 33 -17 61 -13 41 5 65 -8 79 -44 4 -13 18 -24 31 -26 24 -3 37 -24 63
-105 17 -54 14 -82 -11 -108 -19 -18 -51 -20 -57 -2 -2 6 -2 1 0 -11 6 -37 -5
-61 -26 -55 -11 3 -31 -3 -45 -12 -14 -9 -31 -15 -38 -12 -8 4 -7 6 4 6 9 1
19 5 22 9 3 5 -8 6 -25 4 -17 -3 -29 0 -29 7 0 22 -40 11 -50 -14 -5 -14 -21
-27 -37 -31 l-27 -7 24 -9 23 -8 -23 -25 c-29 -31 -46 -32 -61 -2 -7 12 -19
27 -27 33 -20 15 -11 49 13 49 37 1 95 17 90 25 -3 5 1 10 7 13 7 2 1 4 -15 4
-15 0 -30 -3 -33 -8 -3 -5 -10 -9 -15 -9 -6 0 -8 4 -4 10 3 5 -7 5 -24 -1 -25
-9 -34 -8 -46 5 -19 18 -45 11 -45 -14 0 -10 -11 -25 -25 -34 -14 -9 -23 -21
-19 -27 3 -6 -4 -7 -18 -4 -15 4 -29 1 -35 -7 -9 -10 -6 -14 13 -16 58 -6 81
-6 104 0 23 6 27 2 54 -59 l30 -65 37 5 c36 5 37 4 42 -31 4 -19 4 -38 2 -42
-6 -10 -55 0 -55 11 0 16 -23 9 -47 -13 -20 -19 -25 -20 -34 -8 -8 13 -10 13
-19 0 -17 -26 -12 -43 10 -36 11 3 29 9 40 12 12 4 20 2 20 -5 0 -6 0 -14 0
-18 0 -8 -5 -10 -40 -12 -13 -1 -20 -8 -20 -20 0 -18 31 -35 83 -45 7 -2 26
-9 42 -16 17 -7 50 -18 75 -24 l45 -12 0 -65 0 -64 -44 -3 c-30 -2 -82 9 -165
35 -114 36 -129 38 -246 38 -128 0 -283 -25 -307 -48 -8 -8 -12 -94 -14 -289
l-4 -277 330 -4 330 -4 84 39 c46 21 101 54 121 72 21 18 70 51 110 72 98 51
140 92 140 134 0 29 -14 48 -112 145 -66 64 -124 132 -140 161 -41 77 -61 166
-53 239 8 79 61 207 119 291 53 76 111 185 137 261 15 45 16 53 3 64 -16 13
-19 55 -4 64 6 4 8 15 5 26 -7 20 25 83 52 106 19 15 31 133 14 133 -6 0 -11
-4 -11 -10 0 -5 -7 -10 -16 -10 -13 0 -14 3 -5 14 10 12 6 13 -29 4 -35 -9
-43 -8 -54 7 -19 27 -66 13 -66 -20 0 -20 -8 -26 -40 -36 -21 -7 -37 -15 -35
-20 3 -4 -4 -5 -14 -2 -16 4 -20 -1 -23 -28 -2 -22 -10 -37 -24 -44 -12 -6
-28 -15 -35 -21 -8 -6 -30 -11 -49 -11 -20 0 -25 1 -12 4 24 5 31 23 8 23 -8
0 -25 -4 -39 -9 -18 -7 -26 -5 -35 10 -13 21 -57 26 -68 8 -4 -7 -7 -21 -8
-32 -1 -15 -13 -24 -43 -35 -47 -15 -54 -27 -23 -37 18 -6 19 -8 5 -22 -15
-14 -17 -14 -30 3 -12 16 -16 17 -24 5 -6 -10 -17 -11 -37 -6 -16 4 -47 9 -69
10 -32 2 -46 10 -77 45 -34 38 -40 41 -55 29 -10 -7 -20 -15 -22 -16 -2 -1 2
-9 8 -17 11 -13 9 -13 -16 -4 -25 9 -28 15 -26 49 1 21 -2 41 -8 44 -5 4 -9
24 -9 45 0 21 -5 40 -11 42 -6 2 -13 21 -16 43 -2 21 -9 45 -15 52 -5 7 -8 20
-4 28 9 25 -11 65 -34 65 -11 0 -20 5 -20 10 0 6 -8 10 -17 10 -17 1 -17 1 -1
10 21 13 16 46 -11 72 -19 17 -21 17 -29 1z m-51 -376 c-8 -8 -14 -8 -23 1 -9
9 -7 17 8 33 l19 21 3 -22 c2 -12 -1 -27 -7 -33z m1003 -35 c7 -21 18 -33 35
-37 14 -3 34 -8 44 -11 28 -9 19 9 -18 35 -20 13 -33 26 -31 28 3 3 21 -7 41
-23 52 -39 45 -64 -25 -85 -30 -9 -56 -21 -57 -26 -2 -6 11 -16 29 -22 18 -7
47 -19 63 -26 24 -11 26 -14 9 -14 -11 -1 -25 4 -32 11 -9 9 -18 9 -37 0 -40
-18 -72 -14 -89 10 -22 31 -20 64 5 99 11 16 18 33 14 38 -3 6 -3 21 1 35 8
33 37 27 48 -12z m115 -17 c0 -5 -6 -1 -14 9 -8 11 -15 24 -15 30 0 5 7 1 15
-10 8 -10 14 -23 14 -29z m18 13 c-3 -8 -6 -5 -6 6 -1 11 2 17 5 13 3 -3 4
-12 1 -19z m-834 -38 c3 -11 1 -18 -4 -14 -5 3 -9 12 -9 20 0 20 7 17 13 -6z
m-297 -21 c9 -15 -11 -33 -30 -26 -9 4 -13 13 -10 22 7 17 30 20 40 4z m34
-39 c0 -5 -5 -10 -11 -10 -5 0 -7 5 -4 10 3 6 8 10 11 10 2 0 4 -4 4 -10z m0
-276 c0 -8 -5 -12 -10 -9 -6 4 -8 11 -5 16 9 14 15 11 15 -7z m110 -33 c0 -6
-9 -16 -20 -24 -26 -18 -15 -28 18 -16 34 13 52 5 52 -24 0 -27 -17 -47 -42
-47 -9 0 -21 -8 -27 -17 -8 -16 -12 -15 -35 10 -32 34 -42 72 -26 92 7 8 16
13 20 10 4 -2 16 2 26 10 22 17 34 19 34 6z m130 -35 c0 -3 -4 -8 -10 -11 -5
-3 -10 -1 -10 4 0 6 5 11 10 11 6 0 10 -2 10 -4z m-50 -26 c0 -5 -4 -10 -10
-10 -5 0 -10 5 -10 10 0 6 5 10 10 10 6 0 10 -4 10 -10z m-231 -70 c1 -9 -5
-6 -15 8 -9 14 -13 30 -9 40 7 14 9 13 15 -8 5 -14 8 -32 9 -40z m69 -33 c-16
-6 -28 -17 -28 -24 0 -7 -4 -13 -10 -13 -5 0 -10 4 -10 9 0 5 -3 16 -6 25 -5
13 2 16 37 15 42 -1 43 -2 17 -12z m-608 -16 c0 -5 -11 -8 -24 -7 -13 0 -22 4
-19 9 6 10 43 9 43 -2z m-283 -23 c-3 -8 -6 -5 -6 6 -1 11 2 17 5 13 3 -3 4
-12 1 -19z m893 -31 c0 -7 -9 -13 -20 -13 -11 0 -20 6 -20 13 0 7 9 13 20 13
11 0 20 -6 20 -13z m-909 -20 c-10 -9 -11 -8 -5 6 3 10 9 15 12 12 3 -3 0 -11
-7 -18z m54 -57 c22 -23 26 -33 17 -39 -9 -5 -4 -11 15 -20 22 -10 24 -14 12
-22 -7 -5 -25 -9 -39 -9 -17 0 -29 -8 -37 -25 -6 -14 -7 -25 -3 -25 5 0 8 -9
7 -20 -1 -11 -7 -20 -14 -20 -7 0 -10 7 -7 15 11 28 -4 15 -20 -17 -9 -17 -16
-44 -16 -59 0 -15 -6 -34 -14 -42 -10 -10 -12 -17 -4 -25 7 -7 6 -21 -2 -47
-8 -26 -15 -34 -23 -26 -7 7 -7 14 2 24 12 16 4 50 -10 41 -5 -3 -9 -15 -9
-27 0 -22 -1 -22 -19 3 -14 17 -17 29 -10 42 12 22 12 41 -1 33 -5 -3 -10 -2
-10 4 0 5 -9 9 -20 8 -13 -1 -18 -7 -15 -17 2 -8 -7 -23 -22 -34 -21 -16 -25
-16 -20 -4 8 21 -3 30 -20 17 -11 -10 -13 -5 -11 25 2 20 6 36 11 36 4 0 7 9
7 20 0 14 17 30 55 51 43 24 55 36 55 55 0 15 -6 24 -15 24 -24 0 -17 30 10
40 14 5 25 15 25 22 0 19 38 40 60 33 10 -3 21 -1 25 5 11 18 30 11 60 -20z
m845 6 c0 -3 -4 -8 -10 -11 -5 -3 -10 -1 -10 4 0 6 5 11 10 11 6 0 10 -2 10
-4z m-606 -101 c15 -30 20 -34 37 -25 10 6 19 15 19 20 0 6 8 10 18 10 32 0
26 -56 -8 -82 -16 -11 -32 -34 -35 -50 -4 -15 -11 -28 -16 -28 -5 0 -9 -9 -9
-20 0 -11 -4 -20 -8 -20 -4 0 -9 -12 -10 -27 -3 -37 -12 -42 -13 -7 -1 29 -1
29 -11 -6 l-11 -35 -12 35 c-6 19 -19 36 -28 38 -10 2 -17 10 -17 18 0 8 -4
14 -10 14 -15 0 -12 26 4 42 7 8 13 32 13 54 0 24 10 57 24 81 27 48 46 45 73
-12z m1236 15 c0 -5 -2 -10 -4 -10 -3 0 -8 5 -11 10 -3 6 -1 10 4 10 6 0 11
-4 11 -10z m-690 -4 c0 -3 -4 -8 -10 -11 -5 -3 -10 -1 -10 4 0 6 5 11 10 11 6
0 10 -2 10 -4z m-230 -26 c0 -5 -7 -10 -16 -10 -8 0 -12 5 -9 10 3 6 10 10 16
10 5 0 9 -4 9 -10z m-63 -42 c-3 -7 -5 -2 -5 12 0 14 2 19 5 13 2 -7 2 -19 0
-25z m55 -23 c-5 -29 -17 -32 -26 -8 -4 9 -1 20 6 25 21 13 25 9 20 -17z
m-884 -144 c-7 -11 -16 -17 -20 -14 -10 5 10 33 23 33 5 0 4 -9 -3 -19z m1672
-179 c-6 -2 -16 -15 -21 -29 -9 -24 -11 -25 -28 -9 -9 9 -28 16 -40 16 -18 0
-20 3 -12 18 6 10 7 28 4 40 -4 18 -1 22 18 22 13 0 30 4 38 9 10 7 19 0 33
-27 12 -24 14 -38 8 -40z m-272 -14 c7 -7 12 -20 12 -29 0 -22 10 -28 62 -37
23 -4 43 -13 45 -19 3 -7 -10 -26 -28 -42 -30 -28 -31 -31 -22 -70 15 -57 -3
-71 -52 -41 l-35 22 -26 -21 c-15 -12 -36 -21 -47 -21 -17 0 -19 5 -15 45 5
40 2 48 -19 65 -14 11 -29 17 -34 15 -11 -7 -8 37 4 53 5 6 20 12 32 12 39 0
54 10 65 46 12 35 36 44 58 22z m336 -17 c3 -4 17 -6 31 -3 24 4 25 2 20 -21
-4 -14 -2 -28 4 -31 18 -11 13 -26 -9 -26 -10 0 -24 -8 -30 -17 -10 -17 -12
-16 -26 5 -9 12 -23 22 -30 22 -8 0 -14 7 -14 15 0 8 5 15 10 15 6 0 10 8 10
18 0 28 22 43 34 23z m26 -166 c7 -8 19 -15 26 -15 10 0 12 -9 7 -32 -7 -39
-2 -34 -40 -41 -28 -6 -33 -3 -33 12 0 10 -7 21 -15 25 -21 8 -19 24 5 31 11
3 20 13 20 21 0 18 14 18 30 -1z m-90 -114 c0 -10 7 -21 15 -25 12 -4 11 -9
-8 -28 -29 -30 -77 -26 -75 6 0 11 -1 28 -3 36 -3 9 4 15 19 16 12 1 25 4 29
8 12 12 23 6 23 -13z m-1536 -20 c4 -5 3 -16 0 -25 -5 -13 -8 -13 -20 -1 -8 7
-14 18 -14 24 0 13 27 15 34 2z m376 -66 c-12 -15 -30 -12 -30 6 0 5 10 9 21
9 18 0 19 -2 9 -15z"/>
<path d="M3713 1993 c9 -2 25 -2 35 0 9 3 1 5 -18 5 -19 0 -27 -2 -17 -5z"/>
<path d="M2800 1580 c0 -5 7 -10 16 -10 8 0 12 5 9 10 -3 6 -10 10 -16 10 -5
0 -9 -4 -9 -10z"/>
<path d="M3482 2472 c-1 -7 -7 -10 -12 -7 -10 6 -4 -42 6 -54 9 -11 15 10 11
41 -2 18 -5 27 -5 20z"/>
<path d="M3730 2473 c1 -12 26 -43 35 -43 5 0 16 -7 26 -16 11 -10 19 -12 24
-5 3 6 0 11 -9 11 -8 0 -26 14 -39 30 -25 30 -37 37 -37 23z"/>
<path d="M3508 2435 c-3 -22 -4 -41 -3 -42 1 -2 9 13 18 33 10 19 13 33 8 30
-5 -4 -11 0 -14 6 -2 7 -6 -5 -9 -27z"/>
<path d="M3427 2447 c-3 -9 3 -26 13 -39 23 -27 25 -22 6 22 -9 24 -15 28 -19
17z"/>
<path d="M3544 2418 c-8 -15 -11 -28 -6 -28 4 0 20 13 35 28 25 26 25 28 6 28
-13 0 -26 -11 -35 -28z"/>
<path d="M3390 2416 c0 -7 12 -21 26 -31 l26 -17 -23 31 c-26 35 -29 37 -29
17z"/>
<path d="M3584 2398 c-49 -36 -51 -40 -10 -24 21 9 39 16 41 16 1 0 2 7 2 15
0 19 1 19 -33 -7z"/>
<path d="M2388 2403 c-13 -3 -18 -15 -18 -44 0 -21 5 -39 11 -39 5 0 9 -10 7
-22 -2 -11 3 -23 11 -26 10 -3 11 2 6 19 -4 17 -3 20 3 10 13 -18 20 -4 22 44
3 70 3 70 -42 58z"/>
<path d="M2550 2395 c0 -8 5 -15 10 -15 6 0 10 7 10 15 0 8 -4 15 -10 15 -5 0
-10 -7 -10 -15z"/>
<path d="M3357 2378 c7 -8 10 -18 6 -21 -3 -4 9 -7 27 -7 38 0 38 1 -10 25
-27 14 -32 15 -23 3z"/>
<path d="M3450 2363 c-9 -10 -14 -26 -12 -36 2 -12 -3 -20 -16 -24 -19 -5 -19
-6 -3 -22 12 -12 28 -16 48 -14 24 4 34 0 47 -18 l16 -23 0 31 c0 36 14 50 35
33 8 -6 19 -9 25 -5 6 3 31 -5 55 -19 49 -27 50 -16 2 36 -22 24 -23 29 -11
46 14 20 13 20 -42 5 -54 -14 -57 -13 -71 6 -17 26 -53 27 -73 4z"/>
<path d="M3718 2352 c-10 -2 -18 -4 -18 -5 0 -1 7 -20 14 -42 14 -39 14 -39
21 -14 10 40 3 65 -17 61z"/>
<path d="M3656 2333 c-5 -11 4 -27 25 -47 24 -24 30 -26 25 -11 -4 11 -10 32
-13 48 -6 30 -27 36 -37 10z"/>
<path d="M3758 2305 c-3 -22 -4 -41 -3 -42 1 -2 9 13 18 33 10 19 13 33 8 30
-5 -4 -11 0 -14 6 -2 7 -6 -5 -9 -27z"/>
<path d="M3330 2312 c0 -5 14 -7 30 -4 17 2 30 6 30 8 0 2 -13 4 -30 4 -16 0
-30 -4 -30 -8z"/>
<path d="M3787 2277 l-18 -32 21 21 c13 12 21 27 19 33 -2 6 -12 -4 -22 -22z"/>
<path d="M3815 2255 c-30 -25 -30 -25 -3 -14 15 7 29 18 32 25 7 18 6 18 -29
-11z"/>
<path d="M971 2254 c0 -11 3 -14 6 -6 3 7 2 16 -1 19 -3 4 -6 -2 -5 -13z"/>
<path d="M0 1133 l0 -1133 1950 0 1950 0 -1 1038 c-1 918 -3 1030 -15 972 -35
-162 -98 -313 -188 -450 -31 -47 -68 -115 -82 -152 -23 -57 -25 -71 -15 -99
13 -39 15 -149 2 -149 -5 0 -12 8 -14 18 -2 9 -3 0 0 -22 8 -77 51 -146 157
-250 115 -112 136 -140 136 -178 0 -41 -55 -96 -146 -147 -111 -62 -129 -82
-159 -171 -45 -136 -92 -162 -305 -168 -90 -3 -154 -9 -170 -17 -14 -7 -61
-18 -105 -25 -44 -6 -105 -19 -135 -30 -30 -10 -80 -21 -110 -25 -30 -3 -64
-9 -75 -11 -16 -4 -14 -1 5 10 39 24 21 19 -91 -23 -189 -70 -266 -86 -429
-86 -121 0 -166 5 -275 29 -233 51 -486 48 -673 -8 -145 -44 -285 -42 -437 5
-59 18 -65 18 -101 3 -30 -13 -59 -15 -123 -11 -107 6 -116 15 -94 93 l16 55
-76 70 c-78 72 -118 135 -131 210 -5 27 -13 39 -29 43 -55 13 -149 154 -163
241 -3 25 -3 61 0 81 7 36 49 86 76 92 25 5 36 28 39 79 1 40 -2 53 -22 71
-14 13 -33 41 -43 63 -17 40 -17 43 5 152 17 82 24 152 26 262 2 142 2 144 -5
40 -6 -101 -7 -96 -7 70 0 162 -2 190 -26 281 -25 97 -73 229 -102 283 -12 22
-14 -129 -15 -1106z"/>
<path d="M3190 2250 c0 -5 5 -10 11 -10 5 0 7 5 4 10 -3 6 -8 10 -11 10 -2 0
-4 -4 -4 -10z"/>
<path d="M3627 2234 c3 -8 16 -14 29 -14 32 0 30 6 -5 18 -25 9 -29 8 -24 -4z"/>
<path d="M1525 2179 c-4 -16 -4 -33 0 -39 11 -18 25 -11 25 14 0 14 7 26 15
28 10 2 7 7 -10 14 -22 11 -24 9 -30 -17z"/>
<path d="M3580 2181 c0 -5 9 -7 20 -4 11 3 20 7 20 9 0 2 -9 4 -20 4 -11 0
-20 -4 -20 -9z"/>
<path d="M3387 2138 c-9 -31 -2 -33 11 -3 6 14 8 25 3 25 -5 0 -11 -10 -14
-22z"/>
<path d="M3351 2134 c0 -11 3 -14 6 -6 3 7 2 16 -1 19 -3 4 -6 -2 -5 -13z"/>
<path d="M3416 2125 c-9 -14 -13 -25 -8 -25 5 0 19 11 32 25 18 19 20 25 8 25
-9 0 -23 -11 -32 -25z"/>
<path d="M3322 2120 c7 -10 14 -18 15 -16 6 6 -9 36 -18 36 -5 0 -4 -9 3 -20z"/>
<path d="M1415 2116 c-17 -9 -20 -21 -20 -73 0 -34 4 -65 8 -69 14 -14 25 18
20 53 -4 22 -1 39 9 51 34 40 25 60 -17 38z"/>
<path d="M3280 2120 c0 -5 10 -15 23 -21 22 -12 22 -12 3 10 -21 23 -26 26
-26 11z"/>
<path d="M3440 2100 c-14 -11 -22 -20 -18 -20 14 0 58 23 58 32 0 13 -13 9
-40 -12z"/>
<path d="M3254 2079 c-3 -5 1 -9 10 -9 8 0 22 -3 32 -7 11 -4 15 -3 11 4 -9
15 -46 23 -53 12z"/>
<path d="M3238 2033 c6 -2 18 -2 25 0 6 3 1 5 -13 5 -14 0 -19 -2 -12 -5z"/>
<path d="M840 1986 c0 -8 5 -18 10 -21 6 -3 10 3 10 14 0 12 -4 21 -10 21 -5
0 -10 -6 -10 -14z"/>
<path d="M813 1929 c-27 -10 -27 -8 -7 -48 13 -26 19 -30 30 -20 15 12 18 47
6 65 -4 7 -15 8 -29 3z"/>
<path d="M2541 1906 c-20 -21 -21 -27 -9 -45 7 -12 18 -21 24 -21 6 0 29 -13
52 -29 34 -26 41 -27 44 -13 8 34 -7 67 -30 66 -13 0 -21 4 -19 10 2 6 14 10
25 8 12 -2 22 2 22 7 0 6 -9 11 -19 11 -11 0 -21 4 -23 9 -8 22 -45 20 -67 -3z"/>
<path d="M3291 1829 c-1 -8 6 -24 15 -35 15 -19 15 -19 6 1 -5 11 -12 27 -15
35 -5 13 -6 13 -6 -1z"/>
<path d="M3332 1815 c0 -16 2 -22 5 -12 2 9 2 23 0 30 -3 6 -5 -1 -5 -18z"/>
<path d="M3370 1825 c-6 -8 -10 -19 -8 -26 2 -6 9 0 16 15 13 29 10 33 -8 11z"/>
<path d="M737 1777 c14 -39 13 -91 -2 -142 -3 -11 4 0 16 24 21 43 21 46 5 98
-9 29 -21 55 -25 57 -5 3 -2 -13 6 -37z"/>
<path d="M797 1781 c3 -24 6 -75 7 -112 1 -41 5 -67 11 -65 16 5 10 147 -8
186 l-16 35 6 -44z"/>
<path d="M3392 1799 c-12 -19 -11 -19 8 -9 11 6 20 15 20 20 0 17 -15 11 -28
-11z"/>
<path d="M1149 1789 c-6 -12 -15 -34 -19 -49 l-8 -28 44 22 c46 22 60 58 28
70 -25 10 -33 7 -45 -15z"/>
<path d="M998 1777 c-33 -27 -64 -95 -50 -109 14 -14 67 19 81 49 13 27 15 83
4 83 -5 -1 -20 -11 -35 -23z"/>
<path d="M3260 1796 c0 -2 8 -10 18 -17 15 -13 16 -12 3 4 -13 16 -21 21 -21
13z"/>
<path d="M3414 1775 c-10 -8 -14 -15 -8 -15 5 0 19 7 30 15 10 8 14 15 8 15
-5 0 -19 -7 -30 -15z"/>
<path d="M670 1748 c0 -13 -7 -45 -15 -72 -8 -27 -15 -61 -14 -75 0 -22 4 -18
24 24 25 51 33 129 15 140 -6 3 -10 -4 -10 -17z"/>
<path d="M3327 1758 c-9 -5 -17 -18 -17 -29 0 -13 -10 -24 -30 -30 -28 -10
-29 -12 -16 -37 7 -15 11 -33 8 -41 -9 -27 16 -1 28 29 7 16 16 30 21 30 10 0
-6 -46 -24 -70 -6 -8 1 -4 15 9 15 13 25 28 22 32 -3 5 -1 17 5 27 8 15 23 17
115 17 93 -1 107 -3 120 -20 8 -11 17 -17 21 -13 3 3 -9 18 -29 33 -19 14 -33
32 -30 38 6 16 -53 14 -68 -1 -18 -18 -32 -14 -17 4 15 18 18 18 -49 -1 -15
-4 -24 -2 -28 9 -8 20 -27 26 -47 14z"/>
<path d="M870 1750 c0 -5 5 -10 10 -10 6 0 10 5 10 10 0 6 -4 10 -10 10 -5 0
-10 -4 -10 -10z"/>
<path d="M3255 1750 c3 -5 14 -10 23 -10 15 0 15 2 2 10 -20 13 -33 13 -25 0z"/>
<path d="M1750 1721 c0 -24 32 -31 74 -17 l30 9 -45 13 c-57 18 -59 17 -59 -5z"/>
<path d="M1865 1720 c-3 -5 -2 -10 4 -10 5 0 13 5 16 10 3 6 2 10 -4 10 -5 0
-13 -4 -16 -10z"/>
<path d="M706 1655 c-9 -26 -7 -32 5 -12 6 10 9 21 6 23 -2 3 -7 -2 -11 -11z"/>
<path d="M3197 1656 c-3 -8 5 -24 18 -36 l24 -22 -5 23 c-5 23 -5 23 10 5 16
-19 16 -19 16 6 0 18 -7 27 -22 32 -32 8 -35 8 -41 -8z"/>
<path d="M1064 1611 c-18 -33 -31 -48 -38 -42 -6 4 -23 11 -39 15 -36 9 -43
-10 -26 -69 11 -36 18 -45 36 -45 13 0 23 -6 23 -13 0 -7 13 -26 29 -41 35
-33 57 -26 90 29 11 20 25 34 30 31 4 -3 18 5 30 18 19 20 20 27 10 50 -7 15
-18 25 -25 22 -13 -5 -37 48 -27 58 4 3 1 6 -5 6 -7 0 -12 -4 -12 -9 0 -5 -13
-9 -30 -9 -32 1 -37 7 -18 26 6 6 9 14 6 18 -3 3 -18 -17 -34 -45z"/>
<path d="M1838 1653 c7 -3 16 -2 19 1 4 3 -2 6 -13 5 -11 0 -14 -3 -6 -6z"/>
<path d="M764 1603 c-12 -24 -17 -43 -13 -43 14 0 41 48 37 67 -2 13 -9 6 -24
-24z"/>
<path d="M1484 1622 c-15 -13 -20 -26 -17 -48 3 -20 -1 -35 -11 -43 -11 -10
-13 -18 -6 -31 7 -12 6 -28 0 -46 -12 -30 -3 -114 11 -114 13 0 28 41 22 58
-3 7 0 10 10 7 21 -9 29 32 9 51 -13 13 -13 22 -5 45 6 16 9 37 7 46 -3 10 4
28 15 40 21 22 19 53 -3 53 -6 -1 -20 -9 -32 -18z"/>
<path d="M1576 1624 c-5 -14 -4 -15 9 -4 17 14 19 20 6 20 -5 0 -12 -7 -15
-16z"/>
<path d="M3457 1633 c-3 -5 -1 -17 4 -28 7 -17 8 -17 8 8 1 27 -4 34 -12 20z"/>
<path d="M3487 1611 c-4 -17 -3 -21 5 -13 5 5 8 16 6 23 -3 8 -7 3 -11 -10z"/>
<path d="M2190 1610 c0 -5 5 -10 10 -10 6 0 10 5 10 10 0 6 -4 10 -10 10 -5 0
-10 -4 -10 -10z"/>
<path d="M3192 1604 c10 -10 20 -16 22 -13 3 3 -5 11 -17 18 -21 13 -21 12 -5
-5z"/>
<path d="M3330 1605 c-11 -13 -10 -14 4 -9 9 3 16 10 16 15 0 13 -6 11 -20 -6z"/>
<path d="M3430 1601 c0 -6 4 -13 10 -16 6 -3 7 1 4 9 -7 18 -14 21 -14 7z"/>
<path d="M3509 1593 c-13 -16 -12 -17 4 -4 16 13 21 21 13 21 -2 0 -10 -8 -17
-17z"/>
<path d="M1360 1585 c-19 -23 -1 -39 21 -19 10 9 19 21 19 26 0 13 -27 9 -40
-7z"/>
<path d="M3540 1580 c-9 -6 -10 -10 -3 -10 6 0 15 5 18 10 8 12 4 12 -15 0z"/>
<path d="M875 1565 c-5 -2 -22 -6 -37 -9 -28 -6 -39 -26 -15 -26 7 0 37 -12
66 -26 28 -15 54 -24 57 -21 17 17 -46 89 -71 82z"/>
<path d="M2981 1557 c-7 -9 -24 -17 -37 -17 -27 0 -42 -19 -23 -31 8 -4 16 -4
20 2 4 7 13 7 27 -2 27 -17 34 -9 30 32 -3 29 -4 31 -17 16z"/>
<path d="M1237 1543 c-4 -3 -7 -11 -7 -17 0 -6 5 -5 12 2 6 6 9 14 7 17 -3 3
-9 2 -12 -2z"/>
<path d="M1355 1520 c3 -5 11 -10 16 -10 6 0 7 5 4 10 -3 6 -11 10 -16 10 -6
0 -7 -4 -4 -10z"/>
<path d="M1407 1523 c-10 -9 -9 -23 2 -23 5 0 11 7 15 15 5 15 -5 20 -17 8z"/>
<path d="M1226 1469 c-31 -24 -33 -54 -10 -142 9 -36 13 -77 10 -100 -5 -26
-1 -48 12 -75 11 -20 27 -61 37 -90 9 -29 21 -52 27 -50 15 5 64 125 87 212
31 117 26 226 -10 226 -6 0 -7 -6 -3 -12 4 -7 -9 2 -27 20 -41 38 -83 42 -123
11z"/>
<path d="M2976 1435 c-4 -14 -4 -31 0 -37 4 -5 0 -15 -7 -20 -23 -16 88 -1
123 17 33 16 55 11 25 -6 -21 -12 -23 -31 -2 -23 10 4 15 0 15 -15 0 -17 -6
-21 -30 -21 -19 0 -30 5 -30 14 0 9 -11 14 -33 14 -29 0 -35 -5 -48 -36 -8
-21 -15 -40 -17 -44 -2 -5 6 -8 17 -8 18 0 20 -4 15 -25 -5 -18 -2 -25 9 -25
11 0 13 6 9 22 -4 15 -2 19 7 14 9 -6 11 1 6 27 -7 34 7 58 20 37 3 -5 17 -10
31 -10 l25 0 -18 -30 c-9 -16 -23 -30 -30 -30 -7 0 -13 -7 -13 -15 0 -14 9
-16 68 -19 17 -1 21 18 22 97 0 39 8 51 26 36 11 -9 14 -8 14 2 0 8 -9 20 -20
27 -13 8 -20 23 -20 43 0 27 -3 30 -22 23 -13 -4 -34 -17 -47 -30 -13 -13 -27
-24 -31 -24 -12 0 -30 26 -23 33 7 7 -15 37 -27 37 -4 0 -11 -11 -14 -25z
m139 -175 c-3 -5 -10 -10 -16 -10 -5 0 -9 5 -9 10 0 6 7 10 16 10 8 0 12 -4 9
-10z"/>
<path d="M3233 1433 c4 -18 2 -33 -4 -35 -6 -2 -7 -11 -4 -20 7 -17 9 -17 38
-1 31 17 31 18 9 21 -17 3 -23 9 -19 21 2 9 -3 23 -11 31 -13 12 -15 10 -9
-17z"/>
<path d="M2376 1402 c-3 -6 -1 -14 5 -17 15 -10 25 3 12 16 -7 7 -13 7 -17 1z"/>
<path d="M853 1330 c-28 -11 -63 -66 -63 -98 0 -41 29 -80 91 -124 33 -24 74
-53 91 -65 19 -15 45 -23 69 -23 49 0 74 34 73 100 -2 131 -154 253 -261 210z
m32 -104 c-31 -46 17 -100 67 -76 22 11 22 10 4 -4 -27 -21 -52 -20 -76 4 -22
22 -27 69 -8 88 21 21 29 13 13 -12z m49 -7 c-3 -5 -10 -7 -15 -3 -5 3 -7 10
-3 15 3 5 10 7 15 3 5 -3 7 -10 3 -15z"/>
<path d="M2380 1306 c0 -9 30 -14 35 -6 4 6 -3 10 -14 10 -12 0 -21 -2 -21 -4z"/>
<path d="M3582 1290 c0 -14 2 -19 5 -12 2 6 2 18 0 25 -3 6 -5 1 -5 -13z"/>
<path d="M419 1253 c-13 -16 -12 -17 4 -4 9 7 17 15 17 17 0 8 -8 3 -21 -13z"/>
<path d="M479 1187 c-102 -68 -130 -268 -48 -350 27 -26 35 -29 76 -24 25 2
57 13 72 24 66 48 102 206 66 298 -28 74 -100 97 -166 52z m101 -67 c12 -8 9
-10 -12 -10 -27 0 -58 -31 -58 -58 0 -8 14 -27 31 -43 36 -33 25 -39 -15 -8
-36 28 -36 80 0 108 30 24 33 24 54 11z m20 -36 c0 -17 -22 -14 -28 4 -2 7 3
12 12 12 9 0 16 -7 16 -16z"/>
<path d="M3015 1200 c3 -5 8 -10 11 -10 2 0 4 5 4 10 0 6 -5 10 -11 10 -5 0
-7 -4 -4 -10z"/>
<path d="M748 1133 c-26 -7 -29 -31 -5 -48 28 -20 40 -19 62 5 33 36 3 59 -57
43z"/>
<path d="M331 1094 c0 -11 3 -14 6 -6 3 7 2 16 -1 19 -3 4 -6 -2 -5 -13z"/>
<path d="M322 1050 c0 -14 2 -19 5 -12 2 6 2 18 0 25 -3 6 -5 1 -5 -13z"/>
<path d="M789 1025 c-26 -14 -59 -55 -59 -74 0 -5 13 -23 29 -40 22 -24 38
-31 66 -31 74 0 87 24 64 116 -10 40 -14 44 -43 44 -17 -1 -43 -7 -57 -15z"/>
<path d="M1345 970 c-3 -5 -1 -10 4 -10 6 0 11 5 11 10 0 6 -2 10 -4 10 -3 0
-8 -4 -11 -10z"/>
<path d="M132 899 c-45 -17 -55 -99 -22 -193 38 -111 86 -157 178 -172 35 -5
41 -3 65 26 15 17 27 39 27 48 0 22 -37 82 -50 82 -6 0 -10 28 -10 65 0 68
-17 118 -44 128 -11 4 -13 1 -9 -10 5 -13 0 -12 -23 4 -35 25 -81 34 -112 22z"/>
<path d="M351 860 c0 -25 64 -120 82 -120 5 0 -5 17 -21 38 -16 20 -36 51 -45
67 -9 17 -16 23 -16 15z"/>
<path d="M460 722 c0 -5 12 -14 26 -20 14 -7 23 -8 19 -2 -9 15 -45 32 -45 22z"/>
<path d="M808 683 c7 -3 16 -2 19 1 4 3 -2 6 -13 5 -11 0 -14 -3 -6 -6z"/>
<path d="M857 564 c3 -8 12 -13 20 -10 8 3 17 6 19 6 2 0 4 5 4 10 0 6 -11 10
-25 10 -18 0 -23 -4 -18 -16z"/>
<path d="M835 519 c-11 -17 -2 -18 19 -3 17 12 17 14 4 14 -9 0 -20 -5 -23
-11z"/>
<path d="M291 484 c0 -11 3 -14 6 -6 3 7 2 16 -1 19 -3 4 -6 -2 -5 -13z"/>
<path d="M870 480 c0 -13 38 -32 44 -21 3 4 -6 13 -19 19 -15 7 -25 8 -25 2z"/>
<path d="M301 450 c0 -8 4 -22 9 -30 12 -18 12 -2 0 25 -6 13 -9 15 -9 5z"/>
<path d="M930 425 c0 -7 14 -9 35 -7 19 2 35 8 35 13 0 5 -16 9 -35 7 -19 -1
-35 -7 -35 -13z"/>
<path d="M800 413 c0 -14 17 -16 73 -7 56 10 44 24 -18 21 -36 -1 -55 -6 -55
-14z"/>
<path d="M916 364 c-5 -14 -4 -15 9 -4 17 14 19 20 6 20 -5 0 -12 -7 -15 -16z"/>
<path d="M370 326 c25 -28 100 -91 100 -84 0 2 -28 28 -62 58 -35 29 -52 41
-38 26z"/>
<path d="M1091 300 c-24 -17 -70 -40 -103 -51 -62 -23 -70 -37 -49 -92 18 -48
55 -77 97 -77 53 0 114 18 121 36 3 8 -1 52 -8 97 -7 45 -13 90 -13 100 0 9 0
17 -1 17 0 0 -20 -14 -44 -30z"/>
<path d="M3450 300 c-25 -11 -58 -20 -75 -21 -23 -1 -25 -3 -8 -6 27 -5 93 12
118 31 25 19 21 18 -35 -4z"/>
<path d="M500 280 c0 -13 97 -60 122 -60 9 0 20 -5 24 -11 7 -12 -10 -8 -89
21 -45 17 -49 17 -53 2 -3 -9 -16 -44 -29 -77 -29 -76 -24 -80 103 -80 88 0
94 1 112 25 18 23 38 105 28 115 -2 3 -44 16 -94 30 -49 15 -93 30 -98 36 -13
12 -26 12 -26 -1z"/>
<path d="M727 124 c-15 -16 -4 -24 56 -43 154 -47 279 -49 412 -6 87 29 65 32
-30 5 -86 -24 -191 -26 -223 -4 -14 9 -33 13 -50 10 -23 -5 -81 10 -143 38 -8
4 -18 3 -22 0z"/>
<path d="M1688 123 c7 -3 16 -2 19 1 4 3 -2 6 -13 5 -11 0 -14 -3 -6 -6z"/>
<path d="M1870 87 c119 -27 152 -31 280 -30 80 0 157 4 172 9 19 6 -12 9 -100
10 -70 1 -201 11 -292 23 -91 12 -172 21 -180 20 -8 0 46 -15 120 -32z"/>
</g>
</svg>
